<svg width="123" height="33" viewBox="0 0 123 33" fill="none" xmlns="http://www.w3.org/2000/svg">
<g clip-path="url(#clip0)">
<path d="M117.78 32.44H4.89C2.44 32.44 0.450001 30.45 0.450001 28V4.89C0.450001 2.44 2.44 0.449997 4.89 0.449997H117.78C120.23 0.449997 122.22 2.44 122.22 4.89V28C122.22 30.45 120.23 32.44 117.78 32.44Z" fill="#1F0A06" stroke="#E9A522" stroke-width="0.8889" stroke-miterlimit="10" stroke-linecap="round" stroke-linejoin="round"/>
<path d="M11.98 20.55V12.32L9.67 10.24V22.74L11.98 20.55ZM15.77 22.97L12.21 20.91L9.81 23.18L15.77 26.62V22.97ZM15.77 9.92V6.27L9.75 9.74L12.22 11.97L15.77 9.92ZM19.54 20.54V12.35L15.97 10.29L12.4 12.35V20.54L15.97 22.6L19.54 20.54ZM22.14 23.18L19.74 20.91L16.18 22.96V26.61L22.14 23.18ZM19.72 11.97L22.12 9.7L16.19 6.28V9.93L19.72 11.97ZM22.27 22.72V10.13L19.96 12.32V20.53L22.27 22.72ZM22.69 9.55V23.34L15.97 27.22L9.25 23.34V9.85V9.55L15.97 5.67L22.69 9.55Z" fill="#665F5E"/>
<path d="M27.96 20.55V12.32L25.65 10.24V22.74L27.96 20.55ZM31.75 22.97L28.19 20.91L25.79 23.18L31.75 26.62V22.97V22.97ZM31.75 9.92V6.27L25.73 9.74L28.2 11.97L31.75 9.92ZM35.53 20.54V12.35L31.96 10.29L28.39 12.35V20.54L31.96 22.6L35.53 20.54ZM38.13 23.18L35.73 20.91L32.17 22.96V26.61L38.13 23.18ZM35.71 11.97L38.11 9.7L32.18 6.28V9.93L35.71 11.97ZM38.26 22.72V10.13L35.95 12.32V20.53L38.26 22.72ZM38.68 9.55V23.34L31.96 27.22L25.24 23.34V9.85V9.55L31.96 5.67L38.68 9.55Z" fill="#665F5E"/>
<path d="M43.95 20.55V12.32L41.64 10.24V22.74L43.95 20.55ZM47.74 22.97L44.18 20.91L41.78 23.18L47.74 26.62V22.97ZM47.74 9.92V6.27L41.72 9.74L44.19 11.97L47.74 9.92ZM51.51 20.54V12.35L47.94 10.29L44.37 12.35V20.54L47.94 22.6L51.51 20.54ZM54.11 23.18L51.71 20.91L48.15 22.96V26.61L54.11 23.18ZM51.69 11.97L54.09 9.7L48.16 6.28V9.93L51.69 11.97ZM54.25 22.72V10.13L51.94 12.32V20.53L54.25 22.72ZM54.67 9.55V23.34L47.95 27.22L41.23 23.34V9.85V9.55L47.95 5.67L54.67 9.55Z" fill="#665F5E"/>
<path d="M61.81 11.79H63.21V21.84H61.81V11.79ZM62.64 20.54H65.36C66.07 20.54 66.6 20.4 66.92 20.13C67.25 19.86 67.41 19.48 67.41 18.98V18.96C67.41 18.62 67.35 18.33 67.23 18.08C67.11 17.84 66.93 17.65 66.67 17.52C66.42 17.39 66.09 17.32 65.7 17.32H62.63V16.05H65.7C66.22 16.05 66.61 15.93 66.88 15.68C67.15 15.44 67.28 15.07 67.28 14.59C67.28 14.09 67.13 13.71 66.84 13.46C66.55 13.21 66.1 13.09 65.51 13.09H62.63V11.78H65.76C66.41 11.78 66.95 11.89 67.39 12.11C67.83 12.33 68.15 12.64 68.37 13.05C68.59 13.46 68.7 13.94 68.7 14.5C68.7 14.85 68.63 15.17 68.5 15.47C68.37 15.77 68.16 16.03 67.89 16.24C67.62 16.45 67.28 16.6 66.87 16.67C67.28 16.73 67.63 16.87 67.92 17.1C68.21 17.33 68.44 17.61 68.6 17.95C68.76 18.29 68.84 18.66 68.84 19.06V19.08C68.84 19.62 68.72 20.1 68.48 20.52C68.24 20.94 67.9 21.26 67.45 21.48C67 21.71 66.48 21.82 65.89 21.82H62.64V20.54Z" fill="#C26420"/>
<path d="M70.95 11.78H72.36V21.84H70.95V11.78ZM71.57 16.25H75C75.27 16.25 75.5 16.19 75.71 16.06C75.92 15.93 76.08 15.75 76.19 15.51C76.3 15.27 76.36 15 76.36 14.69C76.36 14.38 76.3 14.11 76.19 13.87C76.08 13.63 75.92 13.45 75.71 13.32C75.5 13.19 75.27 13.13 74.99 13.13H71.56V11.79H74.93C75.51 11.79 76.02 11.91 76.46 12.15C76.9 12.39 77.24 12.73 77.48 13.17C77.72 13.61 77.84 14.12 77.84 14.69C77.84 15.27 77.72 15.78 77.47 16.22C77.23 16.66 76.88 17 76.44 17.24C76 17.48 75.49 17.6 74.92 17.6H71.55V16.25H71.57ZM74.31 17.28L75.71 16.96L78.28 21.84H76.61L74.31 17.28Z" fill="#C26420"/>
<path d="M81.38 21.49C80.84 21.18 80.43 20.75 80.14 20.19C79.85 19.63 79.7 18.98 79.7 18.24V15.39C79.7 14.65 79.85 14 80.14 13.44C80.43 12.88 80.85 12.45 81.38 12.14C81.91 11.83 82.53 11.68 83.23 11.68C83.93 11.68 84.55 11.83 85.08 12.14C85.62 12.45 86.03 12.88 86.32 13.44C86.61 14 86.76 14.65 86.76 15.39V18.24C86.76 18.98 86.61 19.63 86.32 20.19C86.03 20.75 85.61 21.18 85.08 21.49C84.54 21.8 83.93 21.95 83.23 21.95C82.53 21.95 81.92 21.79 81.38 21.49ZM84.33 20.28C84.65 20.09 84.89 19.83 85.06 19.49C85.23 19.15 85.32 18.75 85.32 18.3V15.35C85.32 14.9 85.23 14.5 85.06 14.16C84.89 13.82 84.64 13.55 84.33 13.36C84.01 13.17 83.65 13.08 83.23 13.08C82.82 13.08 82.45 13.17 82.13 13.36C81.81 13.55 81.57 13.81 81.4 14.16C81.23 14.5 81.14 14.9 81.14 15.35V18.3C81.14 18.75 81.23 19.15 81.4 19.49C81.57 19.83 81.82 20.1 82.13 20.28C82.45 20.47 82.81 20.56 83.23 20.56C83.65 20.56 84.01 20.46 84.33 20.28Z" fill="#C26420"/>
<path d="M88.91 11.79H90.19L95.11 19.56L94.94 19.74V11.79H96.34V21.84H95.05L90.15 14.19L90.31 14V21.84H88.91V11.79Z" fill="#C26420"/>
<path d="M104.52 13.01L100.14 20.51H104.66V21.85H98.41V20.63L102.82 13.13H98.53V11.79H104.52V13.01V13.01Z" fill="#C26420"/>
<path d="M106.53 11.79H107.94V21.84H106.53V11.79ZM107.22 11.79H112.99V13.13H107.22V11.79ZM107.22 16.18H112.23V17.52H107.22V16.18ZM107.22 20.5H112.99V21.84H107.22V20.5Z" fill="#C26420"/>
<path d="M15.77 22.97V26.62L9.81 23.18L12.2 20.91L15.77 22.97Z" fill="#9A3E1B"/>
<path d="M22.14 23.18L16.19 26.61V22.96L19.74 20.91L22.14 23.18Z" fill="#A05D30"/>
<path d="M22.27 10.13V22.72L19.96 20.53V12.32L22.27 10.13Z" fill="#D37231"/>
<path d="M19.54 12.35V20.54L15.97 22.6L12.4 20.54V12.35L15.97 10.29L19.54 12.35Z" fill="#C26420"/>
<path d="M11.98 12.31V20.55L9.67 22.74V10.23L11.98 12.31Z" fill="#A05D30"/>
<path d="M15.77 6.27V9.92L12.22 11.97L9.75 9.74L15.77 6.27Z" fill="#D37231"/>
<path d="M22.12 9.7L19.72 11.97L16.19 9.93V6.28L22.12 9.7Z" fill="#9A3E1B"/>
<path d="M11.98 20.55V12.32L9.67 10.24V22.74L11.98 20.55ZM15.77 22.97L12.21 20.91L9.81 23.18L15.77 26.62V22.97ZM15.77 9.92V6.27L9.75 9.74L12.22 11.97L15.77 9.92ZM19.54 20.54V12.35L15.97 10.29L12.4 12.35V20.54L15.97 22.6L19.54 20.54ZM22.14 23.18L19.74 20.91L16.18 22.96V26.61L22.14 23.18ZM19.72 11.97L22.12 9.7L16.19 6.28V9.93L19.72 11.97ZM22.27 22.72V10.13L19.96 12.32V20.53L22.27 22.72ZM22.69 9.55V23.34L15.97 27.22L9.25 23.34V9.85V9.55L15.97 5.67L22.69 9.55Z" fill="black"/>
</g>
<defs>
<clipPath id="clip0">
<rect width="122.67" height="32.89" fill="white"/>
</clipPath>
</defs>
</svg>
