<svg width="123" height="33" viewBox="0 0 123 33" fill="none" xmlns="http://www.w3.org/2000/svg">
<g clip-path="url(#clip0)">
<path d="M117.78 32.44H4.89C2.44 32.44 0.450001 30.45 0.450001 28V4.89C0.450001 2.44 2.44 0.450001 4.89 0.450001H117.78C120.23 0.450001 122.22 2.44 122.22 4.89V28C122.22 30.45 120.23 32.44 117.78 32.44Z" fill="#1F0A06" stroke="#E9A522" stroke-width="0.8889" stroke-miterlimit="10" stroke-linecap="round" stroke-linejoin="round"/>
<path d="M11.98 20.55V12.32L9.67 10.24V22.74L11.98 20.55ZM15.77 22.97L12.21 20.91L9.81 23.18L15.77 26.62V22.97ZM15.77 9.92V6.27L9.75 9.74L12.22 11.97L15.77 9.92ZM19.54 20.54V12.35L15.97 10.29L12.4 12.35V20.54L15.97 22.6L19.54 20.54ZM22.14 23.18L19.74 20.91L16.18 22.96V26.61L22.14 23.18ZM19.72 11.97L22.12 9.7L16.19 6.28V9.93L19.72 11.97ZM22.27 22.72V10.13L19.96 12.32V20.53L22.27 22.72ZM22.69 9.55V23.34L15.97 27.22L9.25 23.34V9.85V9.55L15.97 5.67L22.69 9.55Z" fill="#665F5E"/>
<path d="M27.96 20.55V12.32L25.65 10.24V22.74L27.96 20.55ZM31.75 22.97L28.19 20.91L25.79 23.18L31.75 26.62V22.97V22.97ZM31.75 9.92V6.27L25.73 9.74L28.2 11.97L31.75 9.92ZM35.53 20.54V12.35L31.96 10.29L28.39 12.35V20.54L31.96 22.6L35.53 20.54ZM38.13 23.18L35.73 20.91L32.17 22.96V26.61L38.13 23.18ZM35.71 11.97L38.11 9.7L32.18 6.28V9.93L35.71 11.97ZM38.26 22.72V10.13L35.95 12.32V20.53L38.26 22.72ZM38.68 9.55V23.34L31.96 27.22L25.24 23.34V9.85V9.55L31.96 5.67L38.68 9.55Z" fill="#665F5E"/>
<path d="M43.95 20.55V12.32L41.64 10.24V22.74L43.95 20.55ZM47.74 22.97L44.18 20.91L41.78 23.18L47.74 26.62V22.97ZM47.74 9.92V6.27L41.72 9.74L44.19 11.97L47.74 9.92ZM51.51 20.54V12.35L47.94 10.29L44.37 12.35V20.54L47.94 22.6L51.51 20.54ZM54.11 23.18L51.71 20.91L48.15 22.96V26.61L54.11 23.18ZM51.69 11.97L54.09 9.7L48.16 6.28V9.93L51.69 11.97ZM54.25 22.72V10.13L51.94 12.32V20.53L54.25 22.72ZM54.67 9.55V23.34L47.95 27.22L41.23 23.34V9.85V9.55L47.95 5.67L54.67 9.55Z" fill="#665F5E"/>
<path d="M63.29 21.49C62.75 21.18 62.34 20.75 62.05 20.19C61.76 19.63 61.61 18.98 61.61 18.24V15.39C61.61 14.65 61.76 14 62.05 13.44C62.34 12.88 62.76 12.45 63.29 12.14C63.82 11.83 64.44 11.68 65.14 11.68C65.84 11.68 66.46 11.83 66.99 12.14C67.53 12.45 67.94 12.88 68.23 13.44C68.52 14 68.67 14.65 68.67 15.39V18.24C68.67 18.98 68.52 19.63 68.23 20.19C67.94 20.75 67.52 21.18 66.99 21.49C66.46 21.8 65.84 21.95 65.14 21.95C64.44 21.95 63.82 21.79 63.29 21.49ZM66.23 20.28C66.55 20.09 66.79 19.83 66.96 19.49C67.13 19.15 67.22 18.75 67.22 18.3V15.35C67.22 14.9 67.13 14.5 66.96 14.16C66.79 13.82 66.54 13.55 66.23 13.36C65.91 13.17 65.55 13.08 65.13 13.08C64.72 13.08 64.35 13.17 64.03 13.36C63.71 13.55 63.47 13.81 63.3 14.16C63.13 14.5 63.04 14.9 63.04 15.35V18.3C63.04 18.75 63.13 19.15 63.3 19.49C63.47 19.83 63.72 20.1 64.03 20.28C64.35 20.47 64.71 20.56 65.13 20.56C65.55 20.56 65.92 20.46 66.23 20.28Z" fill="#FBDA3E"/>
<path d="M72.16 21.51C71.63 21.22 71.23 20.79 70.95 20.23C70.67 19.67 70.53 19 70.53 18.21V11.79H71.94V18.25C71.94 18.98 72.12 19.55 72.49 19.95C72.86 20.35 73.38 20.55 74.05 20.55C74.73 20.55 75.25 20.35 75.62 19.95C75.99 19.55 76.18 18.98 76.18 18.25V11.79H77.59V18.21C77.59 19 77.45 19.67 77.18 20.23C76.9 20.79 76.5 21.22 75.97 21.51C75.44 21.8 74.8 21.95 74.05 21.95C73.32 21.95 72.69 21.8 72.16 21.51Z" fill="#FBDA3E"/>
<path d="M79.82 11.78H81.23V21.84H79.82V11.78ZM80.43 16.25H83.86C84.13 16.25 84.36 16.19 84.57 16.06C84.78 15.93 84.94 15.75 85.05 15.51C85.16 15.27 85.22 15 85.22 14.69C85.22 14.38 85.16 14.11 85.05 13.87C84.94 13.63 84.78 13.45 84.57 13.32C84.36 13.19 84.13 13.13 83.85 13.13H80.42V11.79H83.79C84.37 11.79 84.88 11.91 85.32 12.15C85.76 12.39 86.1 12.73 86.34 13.17C86.58 13.61 86.7 14.12 86.7 14.69C86.7 15.27 86.58 15.78 86.33 16.22C86.09 16.66 85.74 17 85.3 17.24C84.86 17.48 84.35 17.6 83.78 17.6H80.41V16.25H80.43ZM83.17 17.28L84.57 16.96L87.14 21.84H85.47L83.17 17.28Z" fill="#FBDA3E"/>
<path d="M90.25 21.49C89.71 21.18 89.3 20.75 89.01 20.19C88.72 19.63 88.57 18.98 88.57 18.24V15.39C88.57 14.65 88.72 14 89.01 13.44C89.3 12.88 89.72 12.45 90.25 12.14C90.78 11.83 91.4 11.68 92.1 11.68C92.8 11.68 93.42 11.83 93.95 12.14C94.49 12.45 94.9 12.88 95.19 13.44C95.48 14 95.63 14.65 95.63 15.39V18.24C95.63 18.98 95.48 19.63 95.19 20.19C94.9 20.75 94.48 21.18 93.95 21.49C93.41 21.8 92.8 21.95 92.1 21.95C91.4 21.95 90.78 21.79 90.25 21.49ZM93.2 20.28C93.52 20.09 93.76 19.83 93.93 19.49C94.1 19.15 94.19 18.75 94.19 18.3V15.35C94.19 14.9 94.1 14.5 93.93 14.16C93.76 13.82 93.51 13.55 93.2 13.36C92.88 13.17 92.52 13.08 92.1 13.08C91.69 13.08 91.32 13.17 91 13.36C90.68 13.55 90.44 13.81 90.27 14.16C90.1 14.5 90.01 14.9 90.01 15.35V18.3C90.01 18.75 90.1 19.15 90.27 19.49C90.44 19.83 90.69 20.1 91 20.28C91.32 20.47 91.68 20.56 92.1 20.56C92.51 20.56 92.88 20.46 93.2 20.28Z" fill="#FBDA3E"/>
<path d="M47.74 22.97V26.62L41.78 23.18L44.18 20.91L47.74 22.97Z" fill="#FF9F10"/>
<path d="M54.11 23.18L48.16 26.61V22.96L51.72 20.91L54.11 23.18Z" fill="#FEC142"/>
<path d="M54.25 10.13V22.72L51.93 20.53V12.32L54.25 10.13Z" fill="#FBDA3E"/>
<path d="M51.51 12.35V20.54L47.94 22.6L44.37 20.54V12.35L47.94 10.29L51.51 12.35Z" fill="#FBDA3E"/>
<path d="M43.95 12.31V20.55L41.64 22.74V10.23L43.95 12.31Z" fill="#FEC142"/>
<path d="M47.74 6.27V9.92L44.2 11.97L41.72 9.74L47.74 6.27Z" fill="#FCE244"/>
<path d="M54.09 9.7L51.69 11.97L48.16 9.93V6.28L54.09 9.7Z" fill="#FF9F10"/>
<path d="M43.95 20.55V12.32L41.64 10.24V22.74L43.95 20.55ZM47.74 22.97L44.18 20.91L41.78 23.18L47.74 26.62V22.97ZM47.74 9.92V6.27L41.72 9.74L44.19 11.97L47.74 9.92ZM51.51 20.54V12.35L47.94 10.29L44.37 12.35V20.54L47.94 22.6L51.51 20.54ZM54.11 23.18L51.71 20.91L48.15 22.96V26.61L54.11 23.18ZM51.69 11.97L54.09 9.7L48.16 6.28V9.93L51.69 11.97ZM54.25 22.72V10.13L51.94 12.32V20.53L54.25 22.72ZM54.67 9.55V23.34L47.95 27.22L41.23 23.34V9.85V9.55L47.95 5.67L54.67 9.55Z" fill="black"/>
</g>
<defs>
<clipPath id="clip0">
<rect width="122.67" height="32.89" fill="white"/>
</clipPath>
</defs>
</svg>
