<svg width="123" height="33" viewBox="0 0 123 33" fill="none" xmlns="http://www.w3.org/2000/svg">
<g clip-path="url(#clip0)">
<path d="M117.78 32.44H4.89C2.44 32.44 0.450001 30.45 0.450001 28V4.89C0.450001 2.44 2.44 0.449997 4.89 0.449997H117.78C120.23 0.449997 122.22 2.44 122.22 4.89V28C122.22 30.45 120.23 32.44 117.78 32.44Z" fill="#1F0A06" stroke="#E9A522" stroke-width="0.8889" stroke-miterlimit="10" stroke-linecap="round" stroke-linejoin="round"/>
<path d="M17.49 20.55V12.32L15.18 10.24V22.74L17.49 20.55ZM21.28 22.97L17.72 20.91L15.32 23.18L21.28 26.62V22.97ZM21.28 9.92V6.27L15.26 9.74L17.73 11.97L21.28 9.92ZM25.06 20.54V12.35L21.49 10.29L17.92 12.35V20.54L21.49 22.6L25.06 20.54ZM27.66 23.18L25.26 20.91L21.7 22.96V26.61L27.66 23.18ZM25.24 11.97L27.64 9.7L21.7 6.28V9.93L25.24 11.97ZM27.79 22.72V10.13L25.48 12.32V20.53L27.79 22.72ZM28.21 9.55V23.34L21.49 27.22L14.77 23.34V9.85V9.55L21.49 5.67L28.21 9.55Z" fill="#665F5E"/>
<path d="M33.48 20.55V12.32L31.17 10.24V22.74L33.48 20.55ZM37.27 22.97L33.71 20.91L31.31 23.18L37.27 26.62V22.97ZM37.27 9.92V6.27L31.25 9.74L33.72 11.97L37.27 9.92ZM41.04 20.54V12.35L37.47 10.29L33.9 12.35V20.54L37.47 22.6L41.04 20.54ZM43.64 23.18L41.24 20.91L37.68 22.96V26.61L43.64 23.18ZM41.22 11.97L43.62 9.7L37.69 6.28V9.93L41.22 11.97ZM43.78 22.72V10.13L41.47 12.32V20.53L43.78 22.72ZM44.2 9.55V23.34L37.48 27.22L30.76 23.34V9.85V9.55L37.48 5.67L44.2 9.55Z" fill="#665F5E"/>
<path d="M49.47 20.55V12.32L47.16 10.24V22.74L49.47 20.55ZM53.26 22.97L49.7 20.91L47.3 23.18L53.26 26.62V22.97ZM53.26 9.92V6.27L47.24 9.74L49.71 11.97L53.26 9.92ZM57.03 20.54V12.35L53.46 10.29L49.89 12.35V20.54L53.46 22.6L57.03 20.54ZM59.63 23.18L57.23 20.91L53.67 22.96V26.61L59.63 23.18ZM57.21 11.97L59.61 9.7L53.68 6.28V9.93L57.21 11.97ZM59.76 22.72V10.13L57.45 12.32V20.53L59.76 22.72ZM60.18 9.55V23.34L53.46 27.22L46.74 23.34V9.85V9.55L53.46 5.67L60.18 9.55Z" fill="#665F5E"/>
<path d="M67.33 11.79H68.74V21.84H67.33V11.79ZM68.06 16.6H71.28C71.58 16.6 71.85 16.53 72.08 16.39C72.31 16.25 72.49 16.04 72.62 15.78C72.75 15.52 72.81 15.22 72.81 14.87C72.81 14.52 72.75 14.22 72.62 13.96C72.49 13.7 72.31 13.49 72.08 13.35C71.85 13.21 71.58 13.13 71.28 13.13H68.06V11.79H71.23C71.83 11.79 72.36 11.92 72.81 12.17C73.27 12.43 73.62 12.79 73.87 13.25C74.12 13.72 74.25 14.25 74.25 14.87C74.25 15.48 74.12 16.02 73.87 16.48C73.62 16.94 73.27 17.3 72.81 17.56C72.35 17.81 71.83 17.94 71.23 17.94H68.06V16.6Z" fill="#EAEAEA"/>
<path d="M76.01 11.78H77.42V21.84H76.01V11.78ZM76.62 16.25H80.05C80.32 16.25 80.55 16.19 80.76 16.06C80.97 15.93 81.13 15.75 81.24 15.51C81.35 15.27 81.41 15 81.41 14.69C81.41 14.38 81.35 14.11 81.24 13.87C81.13 13.63 80.97 13.45 80.76 13.32C80.55 13.19 80.32 13.13 80.04 13.13H76.61V11.79H80C80.58 11.79 81.09 11.91 81.53 12.15C81.97 12.39 82.31 12.73 82.55 13.17C82.79 13.61 82.91 14.12 82.91 14.69C82.91 15.27 82.79 15.77 82.54 16.22C82.3 16.66 81.95 17 81.51 17.24C81.07 17.48 80.56 17.6 79.99 17.6H76.62V16.25V16.25ZM79.36 17.28L80.76 16.96L83.33 21.84H81.66L79.36 17.28Z" fill="#EAEAEA"/>
<path d="M87.63 11.79H88.83L92.54 21.84H91.02L88.23 13.73L85.44 21.84H83.92L87.63 11.79ZM85.63 18.3H90.92V19.64H85.63V18.3Z" fill="#EAEAEA"/>
<path d="M92.4 11.79H99.49V13.13H92.4V11.79ZM95.25 12.61H96.66V21.84H95.25V12.61Z" fill="#EAEAEA"/>
<path d="M103 11.79H104.2L107.91 21.84H106.39L103.6 13.73L100.81 21.84H99.29L103 11.79ZM101 18.3H106.29V19.64H101V18.3Z" fill="#EAEAEA"/>
<path d="M37.27 22.97V26.62L31.31 23.18L33.71 20.91L37.27 22.97Z" fill="#AFAFAF"/>
<path d="M43.64 23.18L37.69 26.61V22.96L41.25 20.91L43.64 23.18Z" fill="#D3D2D1"/>
<path d="M43.78 10.13V22.72L41.46 20.53V12.32L43.78 10.13Z" fill="#F9F9F9"/>
<path d="M41.04 12.35V20.54L37.47 22.6L33.9 20.54V12.35L37.47 10.29L41.04 12.35Z" fill="#EAEAEA"/>
<path d="M33.48 12.31V20.55L31.17 22.74V10.23L33.48 12.31Z" fill="#D3D2D1"/>
<path d="M37.27 6.27V9.92L33.72 11.97L31.25 9.74L37.27 6.27Z" fill="#F9F9F9"/>
<path d="M43.62 9.7L41.22 11.97L37.69 9.93V6.28L43.62 9.7Z" fill="#AFAFAF"/>
<path d="M33.48 20.55V12.32L31.17 10.24V22.74L33.48 20.55ZM37.27 22.97L33.71 20.91L31.31 23.18L37.27 26.62V22.97ZM37.27 9.92V6.27L31.25 9.74L33.72 11.97L37.27 9.92ZM41.04 20.54V12.35L37.47 10.29L33.9 12.35V20.54L37.47 22.6L41.04 20.54ZM43.64 23.18L41.24 20.91L37.68 22.96V26.61L43.64 23.18ZM41.22 11.97L43.62 9.7L37.69 6.28V9.93L41.22 11.97ZM43.78 22.72V10.13L41.47 12.32V20.53L43.78 22.72ZM44.2 9.55V23.34L37.48 27.22L30.76 23.34V9.85V9.55L37.48 5.67L44.2 9.55Z" fill="black"/>
</g>
<defs>
<clipPath id="clip0">
<rect width="122.67" height="32.89" fill="white"/>
</clipPath>
</defs>
</svg>
