<svg width="24" height="26" viewBox="0 0 24 26" fill="none" xmlns="http://www.w3.org/2000/svg">
<g clip-path="url(#clip0)">
<path d="M12.0008 -0.000183105C10.9662 -0.000183105 10.1292 0.520191 8.62529 1.3684L3.3771 4.32967C1.87321 5.17788 0.993507 5.62565 0.476262 6.50088C-0.0410099 7.37611 0.00162386 8.34287 0.00162386 10.0393V15.9604C0.00162386 17.6568 -0.0410372 18.625 0.476262 19.5002C0.993534 20.3754 1.87321 20.8218 3.3771 21.67L8.62529 24.6312C10.1292 25.4794 10.9663 25.9998 12.0008 25.9998C13.0353 25.9998 13.8723 25.4794 15.3762 24.6312L20.6245 21.67C22.1284 20.8217 23.0081 20.3754 23.5253 19.5002C24.0426 18.6249 23.9999 17.6568 23.9999 15.9604V10.0392C23.9999 8.34281 24.0426 7.37608 23.5253 6.50085C23.008 5.62563 22.1284 5.17785 20.6245 4.32964L15.3762 1.3684C13.8723 0.520191 13.0353 -0.000183105 12.0008 -0.000183105ZM12.0008 1.43423C12.4701 1.43423 13.1382 1.76268 14.6421 2.61089L19.8902 5.57074V5.57218C20.7819 6.07512 21.3388 6.41344 21.7142 6.69422L14.6421 10.6822C13.1382 11.5305 12.4701 11.8589 12.0008 11.8589C11.5314 11.8589 10.8633 11.5305 9.35945 10.6822L2.28728 6.69422C2.66271 6.41304 3.21955 6.07373 4.11124 5.57079V5.57224L9.35945 2.611C10.8633 1.76279 11.5314 1.43434 12.0008 1.43434V1.43423ZM12.0008 2.30552C11.0232 2.30555 10.2313 2.75295 10.2313 3.3043C10.2313 3.85563 11.0232 4.30303 12.0008 4.30308C12.9783 4.30305 13.7716 3.85565 13.7717 3.3043C13.7716 3.0446 13.5921 2.79441 13.2712 2.60813C12.9379 2.41453 12.4791 2.30555 12.0008 2.30552ZM17.9272 5.6478C16.9497 5.64783 16.1578 6.09523 16.1577 6.64658C16.1578 7.1979 16.9497 7.64531 17.9272 7.64536C18.9047 7.64533 19.6966 7.19793 19.6967 6.64658C19.6966 6.37677 19.5036 6.11874 19.1604 5.93078C18.8301 5.7498 18.3877 5.64783 17.9272 5.6478ZM6.07431 5.64925C5.09677 5.64927 4.30346 6.09529 4.30341 6.64661C4.30346 7.19793 5.0968 7.64533 6.07431 7.64539C7.05184 7.64536 7.84373 7.19796 7.84378 6.64661C7.84408 6.37674 7.65057 6.11893 7.30748 5.93081C6.97687 5.7499 6.53495 5.64906 6.07431 5.64925ZM1.55311 7.93674L8.62526 11.9248C10.1292 12.773 10.7537 13.1736 10.9884 13.5707C11.2231 13.9678 11.2665 14.6969 11.2665 16.3933V24.3721C10.8298 24.1948 10.251 23.8916 9.35942 23.3888L4.11121 20.4289C2.60732 19.5807 1.98279 19.1801 1.7481 18.783C1.51341 18.3859 1.46992 17.6568 1.46992 15.9604V10.0393C1.46995 9.0343 1.49189 8.39441 1.55311 7.93674ZM22.4484 7.93674C22.5096 8.39441 22.5316 9.03433 22.5316 10.0393V15.9604C22.5316 17.6568 22.488 18.3859 22.2534 18.783C22.0187 19.1801 21.3942 19.5807 19.8903 20.4289L14.6421 23.3888C13.7505 23.8917 13.1717 24.1948 12.7349 24.3721V16.3933C12.7349 14.6969 12.7784 13.9678 13.0131 13.5707C13.2478 13.1736 13.8723 12.773 15.3762 11.9248L22.4484 7.93674ZM12.0008 8.99153C11.0232 8.99156 10.2299 9.43757 10.2299 9.98889C10.2299 10.5402 11.0232 10.9876 12.0008 10.9877C12.9783 10.9876 13.7702 10.5402 13.7702 9.98889C13.7705 9.7291 13.592 9.48058 13.2712 9.29411C12.9376 9.10058 12.4793 8.99132 12.0008 8.99153ZM2.93543 9.58964C2.78179 9.57329 2.64064 9.59787 2.52103 9.66528C2.03229 9.94101 2.03229 10.8344 2.52103 11.6614C3.00983 12.4884 3.80172 12.9358 4.29051 12.6602C4.77925 12.3845 4.77925 11.4911 4.29051 10.6641C4.06023 10.2745 3.74999 9.95093 3.42442 9.76198C3.25528 9.66376 3.08905 9.60601 2.93543 9.58964ZM8.84467 12.9305C8.69747 12.9178 8.56116 12.9426 8.44605 13.0076C7.95731 13.2833 7.95731 14.1767 8.44605 15.0037C8.93484 15.8307 9.72815 16.2781 10.2169 16.0025C10.7057 15.7268 10.7057 14.8334 10.2169 14.0064C9.97774 13.6017 9.65178 13.2684 9.31356 13.0832C9.15077 12.9941 8.99188 12.9433 8.84467 12.9305ZM5.89794 14.6031C5.7443 14.5866 5.60312 14.6114 5.48354 14.6787C4.9948 14.9544 4.9948 15.8478 5.48354 16.6748C5.97233 17.5018 6.76422 17.9492 7.25302 17.6736C7.74176 17.3978 7.74176 16.5045 7.25302 15.6775C7.02276 15.2879 6.7125 14.9643 6.38692 14.7753C6.21779 14.6772 6.05158 14.6194 5.89794 14.6031ZM18.1036 14.6031C17.9499 14.6195 17.7837 14.6772 17.6146 14.7753C17.289 14.9643 16.9787 15.2879 16.7485 15.6775C16.2598 16.5044 16.2598 17.3978 16.7485 17.6736C17.2373 17.9492 18.0292 17.5032 18.518 16.6762C19.0067 15.8492 19.0067 14.9544 18.518 14.6787C18.3984 14.6113 18.2572 14.5867 18.1036 14.6031ZM2.91821 16.2728C2.771 16.2601 2.63609 16.2861 2.52101 16.3512C2.03227 16.627 2.03227 17.5203 2.52101 18.3473C3.0098 19.1743 3.80169 19.6217 4.29048 19.3461C4.77922 19.0704 4.77922 18.1756 4.29048 17.3486C4.05138 16.9437 3.72543 16.6109 3.3871 16.4255C3.22428 16.3364 3.06544 16.2855 2.91821 16.2728ZM8.86044 19.6165C8.7068 19.6003 8.56557 19.626 8.44605 19.6935C7.95731 19.9692 7.95731 20.8626 8.44605 21.6897C8.93484 22.5166 9.72815 22.964 10.2169 22.6884C10.7057 22.4127 10.7057 21.5193 10.2169 20.6923C9.9868 20.3025 9.67508 19.978 9.3494 19.7888C9.18024 19.6907 9.01408 19.6327 8.86044 19.6165Z" fill="#1F0A06"/>
</g>
<defs>
<clipPath id="clip0">
<rect width="24" height="26" fill="white"/>
</clipPath>
</defs>
</svg>
